<?xml version="1.0" encoding="UTF-8" standalone="no"?><!DOCTYPE svg PUBLIC "-//W3C//DTD SVG 1.1//EN" "http://www.w3.org/Graphics/SVG/1.1/DTD/svg11.dtd"><svg width="100%" height="100%" viewBox="0 0 142 142" version="1.1" xmlns="http://www.w3.org/2000/svg" xmlns:xlink="http://www.w3.org/1999/xlink" xml:space="preserve" style="fill-rule:evenodd;clip-rule:evenodd;stroke-linecap:round;stroke-linejoin:round;stroke-miterlimit:1.5;"><g><path d="M112.505,60.573l0,35.642l11.993,11.993l-107.264,0l11.994,-11.993l0,-33.474l0,-2.168c0,-22.981 18.657,-41.639 41.638,-41.639c22.981,0 41.639,18.658 41.639,41.639" style="fill:#030000;stroke:#000;stroke-width:10px;"/><path d="M82.05,121.981c0,6.177 -5.007,11.184 -11.184,11.184c-6.176,0 -11.183,-5.007 -11.183,-11.184l22.367,0Z" style="fill:#030000;stroke:#000;stroke-width:7px;"/><path d="M67,19.112c-0.197,-0.486 -0.306,-1.016 -0.306,-1.572c0,-2.303 1.869,-4.173 4.172,-4.173c2.303,0 4.173,1.87 4.173,4.173c0,0.556 -0.109,1.086 -0.307,1.572c-1.273,-0.118 -2.562,-0.178 -3.866,-0.178c-1.303,0 -2.593,0.06 -3.866,0.178Z" style="fill:#030000;stroke:#000;stroke-width:7px;"/></g></svg>