<?xml version="1.0" encoding="UTF-8" standalone="no"?><!DOCTYPE svg PUBLIC "-//W3C//DTD SVG 1.1//EN" "http://www.w3.org/Graphics/SVG/1.1/DTD/svg11.dtd"><svg width="100%" height="100%" viewBox="0 0 567 567" version="1.1" xmlns="http://www.w3.org/2000/svg" xmlns:xlink="http://www.w3.org/1999/xlink" xml:space="preserve" style="fill-rule:evenodd;clip-rule:evenodd;stroke-linecap:round;stroke-linejoin:round;stroke-miterlimit:1.5;"><path d="M461.014,234.773l0,151.98l51.142,51.141l-457.382,0l51.141,-51.141l0,-142.734l0,-9.246c0,-97.992 79.557,-177.549 177.55,-177.549c97.992,0 177.549,79.557 177.549,177.549" style="fill:#030000;stroke:#000;stroke-width:20px;"/><path d="M331.152,476.156c0,26.337 -21.35,47.687 -47.687,47.687c-26.337,0 -47.688,-21.35 -47.688,-47.687l95.375,0Z" style="fill:#030000;stroke:#000;stroke-width:7px;"/><path d="M266.98,57.98c-0.843,-2.069 -1.308,-4.332 -1.308,-6.702c0,-9.82 7.973,-17.792 17.793,-17.792c9.819,0 17.792,7.972 17.792,17.792c0,2.37 -0.465,4.633 -1.308,6.702c-5.428,-0.5 -10.927,-0.756 -16.484,-0.756c-5.558,0 -11.057,0.256 -16.485,0.756Z" style="fill:#030000;stroke:#000;stroke-width:7px;"/></svg>